<?xml version="1.0" encoding="UTF-8"?><svg id="Layer_1" xmlns="http://www.w3.org/2000/svg" viewBox="0 0 314.81 126.43"><defs><style>.cls-1{fill:#707071;}.cls-2{fill:none;stroke:#231f20;stroke-miterlimit:10;stroke-width:2px;}.cls-3{fill:#bb9235;}.cls-4{fill:#231f20;}</style></defs><g><path class="cls-3" d="M42.21,73.41c10.51,17.33,29.8,35.43,8.49,48.27-21.31,12.84-33.04-3.74-37.02-10.29-3.98-6.55-33.03-56.74,8.05-101,0,0,20.2-16.39,39.27-8,19.07,8.39,13.49,4.23,17.67,5.25s17.98,10.94,.74,20.51c-7.95,3.48-12.61-1.94-33.25,9.86-9.1,6.6-14.47,18.08-3.95,35.41Z"/><path class="cls-1" d="M63.27,60.09c-1.71-7.69,8.91-17.75,20.2-19.63,16.15-2.68,29.6,12.08,34.62,20.07,14.59,23.21-1.67,53.42-16,59.77-1.44,.64-7.2,3.19-9.18,1.56-1.85-1.51,.52-5.88,1.57-8.03,4.83-9.85,6.95-23.76,4.2-31-5.4-14.22-32.88-11.39-35.41-22.75Z"/><path class="cls-2" d="M65,61.66l7.51-13.1,6.39,12.8s10.38-5.18,21.41-.3l6.23-13.41s41.69,67.19-31.15,72.53c-4.31,1.07-61.02-1.22-63.9-41.44-2.72-32.76,11.02-49.82,11.02-49.82,0,0,12.14-19.81,32.27-13.87,20.13,5.94,17.65,19.27,8.95,26.05-8.71,6.78-27.32,7.31-10.38-24.68,0,0,6.39-8.68,14.38-10.36,7.99-1.68,13.26,2.29,13.26,2.29,0,0,7.68,5.84,12.62,18.89,5.83,.24,10.47,3.98,11.27,8.56,1.09,6.63-3.03,8.6-3.03,8.6,0,0-4.34,2.73-10.04,1.25-3.46-.99-5.46-3.19-6.19-4.08"/><ellipse class="cls-4" cx="74.15" cy="12.84" rx="2.54" ry="2.54"/><ellipse class="cls-4" cx="80.17" cy="67.77" rx="2.54" ry="2.54"/><ellipse class="cls-4" cx="98.45" cy="68.78" rx="2.54" ry="2.54"/><path class="cls-4" d="M91.87,32.58c.46,3.89,3.71,6.04,6.09,5.43,2.1-.54,3.7-3.3,3.04-4.75-.72-1.62-4.38-1.98-9.13-.68Z"/><polygon class="cls-4" points="83.24 76.12 87.97 81.21 92.71 76.12 83.24 76.12"/><path class="cls-2" d="M64.81,83.5s10.15,10.18,23.67-.68c0,0,7.78,9.5,22.66,1.02"/></g><g><g><path class="cls-3" d="M128.38,23.38h20.68v5.1h-15.64v9.32h15.64v5.04h-15.59v17.87h-5.1V23.38Z"/><path class="cls-3" d="M153.54,23.38h5.04V60.7h-5.04V23.38Z"/><path class="cls-3" d="M165.05,21.89l27.6,28.37V23.38h5.1V62.43l-27.6-28.24v26.51h-5.1V21.89Z"/><path class="cls-3" d="M203.98,23.38h9.05c7.17,0,12.5,1.89,16,5.68,3.5,3.79,5.24,8.12,5.24,12.98s-1.81,9.24-5.42,13.01c-3.61,3.77-8.87,5.65-15.76,5.65h-9.11V23.38Zm5.1,4.98v27.3h.29c3.79,0,6.64-.17,8.55-.51,1.91-.34,3.73-1.09,5.45-2.24,1.72-1.15,3.09-2.68,4.1-4.58,1.02-1.9,1.52-4,1.52-6.28,0-2.87-.81-5.47-2.43-7.79-1.62-2.32-3.56-3.89-5.82-4.69-2.26-.8-5.29-1.2-9.1-1.2h-2.58Z"/></g><g><path class="cls-1" d="M128.96,62.23h24.13v5.95h-18.25v10.87h18.25v5.88h-18.18v20.85h-5.95V62.23Z"/><path class="cls-1" d="M159.34,62.23h9.43c4.69,0,8.52,1.17,11.47,3.5s4.43,5.33,4.43,8.97c0,2.92-.96,5.49-2.86,7.72-1.91,2.23-4.89,3.8-8.93,4.72l12.65,18.63h-6.82l-12.08-17.91h-1.33v17.91h-5.95V62.23Zm5.95,5.26v15.18c8.77,.18,13.16-2.36,13.16-7.62,0-1.85-.51-3.35-1.54-4.53-1.03-1.17-2.39-1.97-4.1-2.39-1.71-.42-4.22-.63-7.52-.63Z"/><path class="cls-1" d="M191.64,62.23h5.88v43.54h-5.88V62.23Z"/><path class="cls-1" d="M204.93,62.23h24.13v5.95h-18.25v10.87h18.25v5.88h-18.25v14.97h18.25v5.88h-24.13V62.23Z"/><path class="cls-1" d="M234.04,60.48l32.2,33.1v-31.35h5.95v45.56l-32.2-32.95v30.93h-5.95V60.48Z"/><path class="cls-1" d="M279.46,62.23h10.56c8.36,0,14.58,2.21,18.66,6.63,4.08,4.42,6.12,9.47,6.12,15.14s-2.11,10.78-6.32,15.18c-4.22,4.4-10.35,6.6-18.39,6.6h-10.63V62.23Zm5.95,5.81v31.86h.34c4.42,0,7.75-.2,9.98-.6,2.23-.4,4.35-1.27,6.36-2.61,2-1.34,3.6-3.13,4.79-5.35,1.18-2.22,1.78-4.67,1.78-7.33,0-3.35-.95-6.38-2.84-9.09-1.89-2.71-4.15-4.53-6.79-5.47-2.63-.93-6.17-1.4-10.61-1.4h-3.01Z"/></g><path class="cls-4" d="M258.05,36.98h5.1v24.17h-5.1v-4.8c-2.48,3.65-5.56,5.48-9.23,5.48-3.18,0-5.9-1.25-8.16-3.75-2.26-2.5-3.38-5.54-3.38-9.11,0-3.38,1.14-6.33,3.41-8.86,2.27-2.53,4.95-3.79,8.01-3.79,1.89,0,3.69,.52,5.39,1.55,1.7,1.04,3.02,2.38,3.96,4.04v-4.92Zm.7,12.16c0-2.21-.79-4.1-2.38-5.67-1.58-1.57-3.48-2.36-5.69-2.36s-4.03,.78-5.64,2.34c-1.6,1.56-2.41,3.4-2.41,5.51,0,2.29,.78,4.23,2.35,5.83,1.57,1.6,3.46,2.4,5.69,2.4s4.11-.8,5.69-2.39c1.58-1.59,2.38-3.48,2.38-5.67Z"/></g></svg>